<mxfile host="Electron" modified="2023-12-19T01:02:26.219Z" agent="Mozilla/5.0 (Windows NT 10.0; Win64; x64) AppleWebKit/537.36 (KHTML, like Gecko) draw.io/22.1.2 Chrome/114.0.5735.289 Electron/25.9.4 Safari/537.36" etag="LDO49dkFtnNIj_Nf15RQ" version="22.1.2" type="device">
  <diagram name="Page-1" id="yDm_fk6TP922wjxOswY0">
    <mxGraphModel dx="1091" dy="638" grid="1" gridSize="10" guides="1" tooltips="1" connect="1" arrows="1" fold="1" page="1" pageScale="1" pageWidth="850" pageHeight="1100" math="0" shadow="0">
      <root>
        <mxCell id="0" />
        <mxCell id="1" parent="0" />
        <mxCell id="ql5bJYzX-HCdSsMvNmTN-38" value="" style="rounded=0;whiteSpace=wrap;html=1;" parent="1" vertex="1">
          <mxGeometry x="130" y="160" width="550" height="380" as="geometry" />
        </mxCell>
        <mxCell id="ql5bJYzX-HCdSsMvNmTN-1" value="map( f,&amp;nbsp;" style="text;html=1;strokeColor=none;fillColor=none;align=center;verticalAlign=middle;whiteSpace=wrap;rounded=0;" parent="1" vertex="1">
          <mxGeometry x="130" y="240" width="60" height="30" as="geometry" />
        </mxCell>
        <mxCell id="ql5bJYzX-HCdSsMvNmTN-2" value="" style="rounded=0;whiteSpace=wrap;html=1;fillColor=#FFE6CC;" parent="1" vertex="1">
          <mxGeometry x="190" y="215" width="30" height="20" as="geometry" />
        </mxCell>
        <mxCell id="ql5bJYzX-HCdSsMvNmTN-3" value="" style="rounded=0;whiteSpace=wrap;html=1;fillColor=#FFB366;" parent="1" vertex="1">
          <mxGeometry x="190" y="235" width="30" height="20" as="geometry" />
        </mxCell>
        <mxCell id="ql5bJYzX-HCdSsMvNmTN-4" value="" style="rounded=0;whiteSpace=wrap;html=1;fillColor=#FF8000;" parent="1" vertex="1">
          <mxGeometry x="190" y="255" width="30" height="20" as="geometry" />
        </mxCell>
        <mxCell id="ql5bJYzX-HCdSsMvNmTN-5" value="" style="rounded=0;whiteSpace=wrap;html=1;fillColor=#994C00;" parent="1" vertex="1">
          <mxGeometry x="190" y="275" width="30" height="20" as="geometry" />
        </mxCell>
        <mxCell id="ql5bJYzX-HCdSsMvNmTN-11" value=")" style="text;html=1;strokeColor=none;fillColor=none;align=left;verticalAlign=middle;whiteSpace=wrap;rounded=0;" parent="1" vertex="1">
          <mxGeometry x="230" y="240" width="10" height="30" as="geometry" />
        </mxCell>
        <mxCell id="ql5bJYzX-HCdSsMvNmTN-12" value="" style="rounded=0;whiteSpace=wrap;html=1;" parent="1" vertex="1">
          <mxGeometry x="186" y="360" width="60" height="40" as="geometry" />
        </mxCell>
        <mxCell id="ql5bJYzX-HCdSsMvNmTN-13" value="" style="rounded=0;whiteSpace=wrap;html=1;fillColor=#FFE6CC;" parent="1" vertex="1">
          <mxGeometry x="201" y="370" width="30" height="20" as="geometry" />
        </mxCell>
        <mxCell id="ql5bJYzX-HCdSsMvNmTN-17" value="" style="shape=flexArrow;endArrow=classic;html=1;rounded=0;exitX=0;exitY=0.5;exitDx=0;exitDy=0;" parent="1" edge="1">
          <mxGeometry width="50" height="50" relative="1" as="geometry">
            <mxPoint x="250" y="254.5" as="sourcePoint" />
            <mxPoint x="300" y="254.5" as="targetPoint" />
          </mxGeometry>
        </mxCell>
        <mxCell id="ql5bJYzX-HCdSsMvNmTN-19" value="f(" style="text;html=1;strokeColor=none;fillColor=none;align=right;verticalAlign=middle;whiteSpace=wrap;rounded=0;" parent="1" vertex="1">
          <mxGeometry x="191" y="365" width="10" height="30" as="geometry" />
        </mxCell>
        <mxCell id="ql5bJYzX-HCdSsMvNmTN-23" value="" style="rounded=0;whiteSpace=wrap;html=1;" parent="1" vertex="1">
          <mxGeometry x="186" y="400" width="60" height="40" as="geometry" />
        </mxCell>
        <mxCell id="ql5bJYzX-HCdSsMvNmTN-24" value="" style="rounded=0;whiteSpace=wrap;html=1;fillColor=#FFB366;" parent="1" vertex="1">
          <mxGeometry x="201" y="410" width="30" height="20" as="geometry" />
        </mxCell>
        <mxCell id="ql5bJYzX-HCdSsMvNmTN-26" value=")" style="text;html=1;strokeColor=none;fillColor=none;align=left;verticalAlign=middle;whiteSpace=wrap;rounded=0;" parent="1" vertex="1">
          <mxGeometry x="231" y="365" width="10" height="30" as="geometry" />
        </mxCell>
        <mxCell id="ql5bJYzX-HCdSsMvNmTN-27" value="" style="rounded=0;whiteSpace=wrap;html=1;" parent="1" vertex="1">
          <mxGeometry x="186" y="440" width="60" height="40" as="geometry" />
        </mxCell>
        <mxCell id="ql5bJYzX-HCdSsMvNmTN-28" value="" style="rounded=0;whiteSpace=wrap;html=1;fillColor=#FF8000;" parent="1" vertex="1">
          <mxGeometry x="201" y="450" width="30" height="20" as="geometry" />
        </mxCell>
        <mxCell id="ql5bJYzX-HCdSsMvNmTN-30" value=")" style="text;html=1;strokeColor=none;fillColor=none;align=left;verticalAlign=middle;whiteSpace=wrap;rounded=0;" parent="1" vertex="1">
          <mxGeometry x="231" y="445" width="10" height="30" as="geometry" />
        </mxCell>
        <mxCell id="ql5bJYzX-HCdSsMvNmTN-31" value="" style="rounded=0;whiteSpace=wrap;html=1;" parent="1" vertex="1">
          <mxGeometry x="186" y="480" width="60" height="40" as="geometry" />
        </mxCell>
        <mxCell id="ql5bJYzX-HCdSsMvNmTN-32" value="" style="rounded=0;whiteSpace=wrap;html=1;fillColor=#994C00;" parent="1" vertex="1">
          <mxGeometry x="201" y="490" width="30" height="20" as="geometry" />
        </mxCell>
        <mxCell id="ql5bJYzX-HCdSsMvNmTN-34" value=")" style="text;html=1;strokeColor=none;fillColor=none;align=left;verticalAlign=middle;whiteSpace=wrap;rounded=0;" parent="1" vertex="1">
          <mxGeometry x="231" y="485" width="10" height="30" as="geometry" />
        </mxCell>
        <mxCell id="ql5bJYzX-HCdSsMvNmTN-36" value=")" style="text;html=1;strokeColor=none;fillColor=none;align=left;verticalAlign=middle;whiteSpace=wrap;rounded=0;" parent="1" vertex="1">
          <mxGeometry x="231" y="405" width="10" height="30" as="geometry" />
        </mxCell>
        <mxCell id="ql5bJYzX-HCdSsMvNmTN-39" value="f(" style="text;html=1;strokeColor=none;fillColor=none;align=right;verticalAlign=middle;whiteSpace=wrap;rounded=0;" parent="1" vertex="1">
          <mxGeometry x="191" y="405" width="10" height="30" as="geometry" />
        </mxCell>
        <mxCell id="ql5bJYzX-HCdSsMvNmTN-40" value="f(" style="text;html=1;strokeColor=none;fillColor=none;align=right;verticalAlign=middle;whiteSpace=wrap;rounded=0;" parent="1" vertex="1">
          <mxGeometry x="191" y="445" width="10" height="30" as="geometry" />
        </mxCell>
        <mxCell id="ql5bJYzX-HCdSsMvNmTN-41" value="f(" style="text;html=1;strokeColor=none;fillColor=none;align=right;verticalAlign=middle;whiteSpace=wrap;rounded=0;" parent="1" vertex="1">
          <mxGeometry x="191" y="485" width="10" height="30" as="geometry" />
        </mxCell>
        <mxCell id="jHMG6SsRFULOIU4X37C4-6" value="map( g,&amp;nbsp;" style="text;html=1;strokeColor=none;fillColor=none;align=center;verticalAlign=middle;whiteSpace=wrap;rounded=0;" vertex="1" parent="1">
          <mxGeometry x="136" y="425" width="60" height="30" as="geometry" />
        </mxCell>
        <mxCell id="jHMG6SsRFULOIU4X37C4-11" value=")" style="text;html=1;strokeColor=none;fillColor=none;align=left;verticalAlign=middle;whiteSpace=wrap;rounded=0;" vertex="1" parent="1">
          <mxGeometry x="256" y="425" width="10" height="30" as="geometry" />
        </mxCell>
        <mxCell id="jHMG6SsRFULOIU4X37C4-13" value="" style="rounded=0;whiteSpace=wrap;html=1;" vertex="1" parent="1">
          <mxGeometry x="310" y="175" width="60" height="40" as="geometry" />
        </mxCell>
        <mxCell id="jHMG6SsRFULOIU4X37C4-14" value="" style="rounded=0;whiteSpace=wrap;html=1;fillColor=#FFE6CC;" vertex="1" parent="1">
          <mxGeometry x="325" y="185" width="30" height="20" as="geometry" />
        </mxCell>
        <mxCell id="jHMG6SsRFULOIU4X37C4-15" value="f(" style="text;html=1;strokeColor=none;fillColor=none;align=right;verticalAlign=middle;whiteSpace=wrap;rounded=0;" vertex="1" parent="1">
          <mxGeometry x="315" y="180" width="10" height="30" as="geometry" />
        </mxCell>
        <mxCell id="jHMG6SsRFULOIU4X37C4-16" value="" style="rounded=0;whiteSpace=wrap;html=1;" vertex="1" parent="1">
          <mxGeometry x="310" y="215" width="60" height="40" as="geometry" />
        </mxCell>
        <mxCell id="jHMG6SsRFULOIU4X37C4-17" value="" style="rounded=0;whiteSpace=wrap;html=1;fillColor=#FFB366;" vertex="1" parent="1">
          <mxGeometry x="325" y="225" width="30" height="20" as="geometry" />
        </mxCell>
        <mxCell id="jHMG6SsRFULOIU4X37C4-18" value=")" style="text;html=1;strokeColor=none;fillColor=none;align=left;verticalAlign=middle;whiteSpace=wrap;rounded=0;" vertex="1" parent="1">
          <mxGeometry x="355" y="180" width="10" height="30" as="geometry" />
        </mxCell>
        <mxCell id="jHMG6SsRFULOIU4X37C4-19" value="" style="rounded=0;whiteSpace=wrap;html=1;" vertex="1" parent="1">
          <mxGeometry x="310" y="255" width="60" height="40" as="geometry" />
        </mxCell>
        <mxCell id="jHMG6SsRFULOIU4X37C4-20" value="" style="rounded=0;whiteSpace=wrap;html=1;fillColor=#FF8000;" vertex="1" parent="1">
          <mxGeometry x="325" y="265" width="30" height="20" as="geometry" />
        </mxCell>
        <mxCell id="jHMG6SsRFULOIU4X37C4-21" value=")" style="text;html=1;strokeColor=none;fillColor=none;align=left;verticalAlign=middle;whiteSpace=wrap;rounded=0;" vertex="1" parent="1">
          <mxGeometry x="355" y="260" width="10" height="30" as="geometry" />
        </mxCell>
        <mxCell id="jHMG6SsRFULOIU4X37C4-22" value="" style="rounded=0;whiteSpace=wrap;html=1;" vertex="1" parent="1">
          <mxGeometry x="310" y="295" width="60" height="40" as="geometry" />
        </mxCell>
        <mxCell id="jHMG6SsRFULOIU4X37C4-23" value="" style="rounded=0;whiteSpace=wrap;html=1;fillColor=#994C00;" vertex="1" parent="1">
          <mxGeometry x="325" y="305" width="30" height="20" as="geometry" />
        </mxCell>
        <mxCell id="jHMG6SsRFULOIU4X37C4-24" value=")" style="text;html=1;strokeColor=none;fillColor=none;align=left;verticalAlign=middle;whiteSpace=wrap;rounded=0;" vertex="1" parent="1">
          <mxGeometry x="355" y="300" width="10" height="30" as="geometry" />
        </mxCell>
        <mxCell id="jHMG6SsRFULOIU4X37C4-25" value=")" style="text;html=1;strokeColor=none;fillColor=none;align=left;verticalAlign=middle;whiteSpace=wrap;rounded=0;" vertex="1" parent="1">
          <mxGeometry x="355" y="220" width="10" height="30" as="geometry" />
        </mxCell>
        <mxCell id="jHMG6SsRFULOIU4X37C4-26" value="f(" style="text;html=1;strokeColor=none;fillColor=none;align=right;verticalAlign=middle;whiteSpace=wrap;rounded=0;" vertex="1" parent="1">
          <mxGeometry x="315" y="220" width="10" height="30" as="geometry" />
        </mxCell>
        <mxCell id="jHMG6SsRFULOIU4X37C4-27" value="f(" style="text;html=1;strokeColor=none;fillColor=none;align=right;verticalAlign=middle;whiteSpace=wrap;rounded=0;" vertex="1" parent="1">
          <mxGeometry x="315" y="260" width="10" height="30" as="geometry" />
        </mxCell>
        <mxCell id="jHMG6SsRFULOIU4X37C4-28" value="f(" style="text;html=1;strokeColor=none;fillColor=none;align=right;verticalAlign=middle;whiteSpace=wrap;rounded=0;" vertex="1" parent="1">
          <mxGeometry x="315" y="300" width="10" height="30" as="geometry" />
        </mxCell>
        <mxCell id="jHMG6SsRFULOIU4X37C4-29" value="" style="shape=flexArrow;endArrow=classic;html=1;rounded=0;exitX=0;exitY=0.5;exitDx=0;exitDy=0;" edge="1" parent="1">
          <mxGeometry width="50" height="50" relative="1" as="geometry">
            <mxPoint x="271" y="439.2" as="sourcePoint" />
            <mxPoint x="321" y="439.2" as="targetPoint" />
          </mxGeometry>
        </mxCell>
        <mxCell id="jHMG6SsRFULOIU4X37C4-30" value="map( g,&amp;nbsp;" style="text;html=1;strokeColor=none;fillColor=none;align=center;verticalAlign=middle;whiteSpace=wrap;rounded=0;" vertex="1" parent="1">
          <mxGeometry x="330" y="425" width="60" height="30" as="geometry" />
        </mxCell>
        <mxCell id="jHMG6SsRFULOIU4X37C4-31" value="" style="rounded=0;whiteSpace=wrap;html=1;fillColor=#CCFFCC;" vertex="1" parent="1">
          <mxGeometry x="390" y="400" width="30" height="20" as="geometry" />
        </mxCell>
        <mxCell id="jHMG6SsRFULOIU4X37C4-32" value="" style="rounded=0;whiteSpace=wrap;html=1;fillColor=#66FF66;" vertex="1" parent="1">
          <mxGeometry x="390" y="420" width="30" height="20" as="geometry" />
        </mxCell>
        <mxCell id="jHMG6SsRFULOIU4X37C4-33" value="" style="rounded=0;whiteSpace=wrap;html=1;fillColor=#00CC66;" vertex="1" parent="1">
          <mxGeometry x="390" y="440" width="30" height="20" as="geometry" />
        </mxCell>
        <mxCell id="jHMG6SsRFULOIU4X37C4-34" value="" style="rounded=0;whiteSpace=wrap;html=1;fillColor=#00CC00;" vertex="1" parent="1">
          <mxGeometry x="390" y="460" width="30" height="20" as="geometry" />
        </mxCell>
        <mxCell id="jHMG6SsRFULOIU4X37C4-35" value=")" style="text;html=1;strokeColor=none;fillColor=none;align=left;verticalAlign=middle;whiteSpace=wrap;rounded=0;" vertex="1" parent="1">
          <mxGeometry x="430" y="425" width="10" height="30" as="geometry" />
        </mxCell>
        <mxCell id="jHMG6SsRFULOIU4X37C4-36" value="" style="rounded=0;whiteSpace=wrap;html=1;" vertex="1" parent="1">
          <mxGeometry x="510" y="360" width="60" height="40" as="geometry" />
        </mxCell>
        <mxCell id="jHMG6SsRFULOIU4X37C4-37" value="" style="rounded=0;whiteSpace=wrap;html=1;fillColor=#CCFFCC;" vertex="1" parent="1">
          <mxGeometry x="525" y="370" width="30" height="20" as="geometry" />
        </mxCell>
        <mxCell id="jHMG6SsRFULOIU4X37C4-38" value="g(" style="text;html=1;strokeColor=none;fillColor=none;align=right;verticalAlign=middle;whiteSpace=wrap;rounded=0;" vertex="1" parent="1">
          <mxGeometry x="515" y="365" width="10" height="30" as="geometry" />
        </mxCell>
        <mxCell id="jHMG6SsRFULOIU4X37C4-39" value="" style="rounded=0;whiteSpace=wrap;html=1;" vertex="1" parent="1">
          <mxGeometry x="510" y="400" width="60" height="40" as="geometry" />
        </mxCell>
        <mxCell id="jHMG6SsRFULOIU4X37C4-40" value="" style="rounded=0;whiteSpace=wrap;html=1;fillColor=#66FF66;" vertex="1" parent="1">
          <mxGeometry x="525" y="410" width="30" height="20" as="geometry" />
        </mxCell>
        <mxCell id="jHMG6SsRFULOIU4X37C4-41" value=")" style="text;html=1;strokeColor=none;fillColor=none;align=left;verticalAlign=middle;whiteSpace=wrap;rounded=0;" vertex="1" parent="1">
          <mxGeometry x="555" y="365" width="10" height="30" as="geometry" />
        </mxCell>
        <mxCell id="jHMG6SsRFULOIU4X37C4-42" value="" style="rounded=0;whiteSpace=wrap;html=1;" vertex="1" parent="1">
          <mxGeometry x="510" y="440" width="60" height="40" as="geometry" />
        </mxCell>
        <mxCell id="jHMG6SsRFULOIU4X37C4-43" value="" style="rounded=0;whiteSpace=wrap;html=1;fillColor=#00CC66;" vertex="1" parent="1">
          <mxGeometry x="525" y="450" width="30" height="20" as="geometry" />
        </mxCell>
        <mxCell id="jHMG6SsRFULOIU4X37C4-44" value=")" style="text;html=1;strokeColor=none;fillColor=none;align=left;verticalAlign=middle;whiteSpace=wrap;rounded=0;" vertex="1" parent="1">
          <mxGeometry x="555" y="445" width="10" height="30" as="geometry" />
        </mxCell>
        <mxCell id="jHMG6SsRFULOIU4X37C4-45" value="" style="rounded=0;whiteSpace=wrap;html=1;" vertex="1" parent="1">
          <mxGeometry x="510" y="480" width="60" height="40" as="geometry" />
        </mxCell>
        <mxCell id="jHMG6SsRFULOIU4X37C4-46" value="" style="rounded=0;whiteSpace=wrap;html=1;fillColor=#00CC00;" vertex="1" parent="1">
          <mxGeometry x="525" y="490" width="30" height="20" as="geometry" />
        </mxCell>
        <mxCell id="jHMG6SsRFULOIU4X37C4-47" value=")" style="text;html=1;strokeColor=none;fillColor=none;align=left;verticalAlign=middle;whiteSpace=wrap;rounded=0;" vertex="1" parent="1">
          <mxGeometry x="555" y="485" width="10" height="30" as="geometry" />
        </mxCell>
        <mxCell id="jHMG6SsRFULOIU4X37C4-48" value=")" style="text;html=1;strokeColor=none;fillColor=none;align=left;verticalAlign=middle;whiteSpace=wrap;rounded=0;" vertex="1" parent="1">
          <mxGeometry x="555" y="405" width="10" height="30" as="geometry" />
        </mxCell>
        <mxCell id="jHMG6SsRFULOIU4X37C4-49" value="g(" style="text;html=1;strokeColor=none;fillColor=none;align=right;verticalAlign=middle;whiteSpace=wrap;rounded=0;" vertex="1" parent="1">
          <mxGeometry x="515" y="405" width="10" height="30" as="geometry" />
        </mxCell>
        <mxCell id="jHMG6SsRFULOIU4X37C4-50" value="g(" style="text;html=1;strokeColor=none;fillColor=none;align=right;verticalAlign=middle;whiteSpace=wrap;rounded=0;" vertex="1" parent="1">
          <mxGeometry x="515" y="445" width="10" height="30" as="geometry" />
        </mxCell>
        <mxCell id="jHMG6SsRFULOIU4X37C4-51" value="g(" style="text;html=1;strokeColor=none;fillColor=none;align=right;verticalAlign=middle;whiteSpace=wrap;rounded=0;" vertex="1" parent="1">
          <mxGeometry x="515" y="485" width="10" height="30" as="geometry" />
        </mxCell>
        <mxCell id="jHMG6SsRFULOIU4X37C4-52" value="" style="shape=flexArrow;endArrow=classic;html=1;rounded=0;exitX=0;exitY=0.5;exitDx=0;exitDy=0;" edge="1" parent="1">
          <mxGeometry width="50" height="50" relative="1" as="geometry">
            <mxPoint x="450" y="439.31" as="sourcePoint" />
            <mxPoint x="500" y="439.31" as="targetPoint" />
          </mxGeometry>
        </mxCell>
        <mxCell id="jHMG6SsRFULOIU4X37C4-57" value="" style="rounded=0;whiteSpace=wrap;html=1;fillColor=#99FFFF;" vertex="1" parent="1">
          <mxGeometry x="640" y="400" width="30" height="20" as="geometry" />
        </mxCell>
        <mxCell id="jHMG6SsRFULOIU4X37C4-58" value="" style="rounded=0;whiteSpace=wrap;html=1;fillColor=#33FFFF;" vertex="1" parent="1">
          <mxGeometry x="640" y="420" width="30" height="20" as="geometry" />
        </mxCell>
        <mxCell id="jHMG6SsRFULOIU4X37C4-59" value="" style="rounded=0;whiteSpace=wrap;html=1;fillColor=#00CCCC;" vertex="1" parent="1">
          <mxGeometry x="640" y="440" width="30" height="20" as="geometry" />
        </mxCell>
        <mxCell id="jHMG6SsRFULOIU4X37C4-60" value="" style="rounded=0;whiteSpace=wrap;html=1;fillColor=#006666;" vertex="1" parent="1">
          <mxGeometry x="640" y="460" width="30" height="20" as="geometry" />
        </mxCell>
        <mxCell id="jHMG6SsRFULOIU4X37C4-61" value="" style="shape=flexArrow;endArrow=classic;html=1;rounded=0;exitX=0;exitY=0.5;exitDx=0;exitDy=0;" edge="1" parent="1">
          <mxGeometry width="50" height="50" relative="1" as="geometry">
            <mxPoint x="580" y="439.31" as="sourcePoint" />
            <mxPoint x="630" y="439.31" as="targetPoint" />
          </mxGeometry>
        </mxCell>
        <mxCell id="jHMG6SsRFULOIU4X37C4-62" value="" style="rounded=0;whiteSpace=wrap;html=1;" vertex="1" parent="1">
          <mxGeometry x="680.5" y="160" width="400" height="380" as="geometry" />
        </mxCell>
        <mxCell id="jHMG6SsRFULOIU4X37C4-63" value="map( g(f,&amp;nbsp;" style="text;html=1;strokeColor=none;fillColor=none;align=center;verticalAlign=middle;whiteSpace=wrap;rounded=0;" vertex="1" parent="1">
          <mxGeometry x="680" y="420" width="60" height="30" as="geometry" />
        </mxCell>
        <mxCell id="jHMG6SsRFULOIU4X37C4-64" value="" style="rounded=0;whiteSpace=wrap;html=1;fillColor=#FFE6CC;" vertex="1" parent="1">
          <mxGeometry x="740" y="395" width="30" height="20" as="geometry" />
        </mxCell>
        <mxCell id="jHMG6SsRFULOIU4X37C4-65" value="" style="rounded=0;whiteSpace=wrap;html=1;fillColor=#FFB366;" vertex="1" parent="1">
          <mxGeometry x="740" y="415" width="30" height="20" as="geometry" />
        </mxCell>
        <mxCell id="jHMG6SsRFULOIU4X37C4-66" value="" style="rounded=0;whiteSpace=wrap;html=1;fillColor=#FF8000;" vertex="1" parent="1">
          <mxGeometry x="740" y="435" width="30" height="20" as="geometry" />
        </mxCell>
        <mxCell id="jHMG6SsRFULOIU4X37C4-67" value="" style="rounded=0;whiteSpace=wrap;html=1;fillColor=#994C00;" vertex="1" parent="1">
          <mxGeometry x="740" y="455" width="30" height="20" as="geometry" />
        </mxCell>
        <mxCell id="jHMG6SsRFULOIU4X37C4-68" value=")" style="text;html=1;strokeColor=none;fillColor=none;align=left;verticalAlign=middle;whiteSpace=wrap;rounded=0;" vertex="1" parent="1">
          <mxGeometry x="780" y="420" width="10" height="30" as="geometry" />
        </mxCell>
        <mxCell id="jHMG6SsRFULOIU4X37C4-71" value="" style="shape=flexArrow;endArrow=classic;html=1;rounded=0;exitX=0;exitY=0.5;exitDx=0;exitDy=0;" edge="1" parent="1">
          <mxGeometry width="50" height="50" relative="1" as="geometry">
            <mxPoint x="800" y="434.5" as="sourcePoint" />
            <mxPoint x="850" y="434.5" as="targetPoint" />
          </mxGeometry>
        </mxCell>
        <mxCell id="jHMG6SsRFULOIU4X37C4-88" value="" style="rounded=0;whiteSpace=wrap;html=1;" vertex="1" parent="1">
          <mxGeometry x="870" y="355" width="66" height="40" as="geometry" />
        </mxCell>
        <mxCell id="jHMG6SsRFULOIU4X37C4-89" value="" style="rounded=0;whiteSpace=wrap;html=1;fillColor=#FFE6CC;" vertex="1" parent="1">
          <mxGeometry x="891" y="365" width="30" height="20" as="geometry" />
        </mxCell>
        <mxCell id="jHMG6SsRFULOIU4X37C4-90" value="g(f(" style="text;html=1;strokeColor=none;fillColor=none;align=right;verticalAlign=middle;whiteSpace=wrap;rounded=0;" vertex="1" parent="1">
          <mxGeometry x="881" y="360" width="10" height="30" as="geometry" />
        </mxCell>
        <mxCell id="jHMG6SsRFULOIU4X37C4-91" value="" style="rounded=0;whiteSpace=wrap;html=1;" vertex="1" parent="1">
          <mxGeometry x="870" y="395" width="66" height="40" as="geometry" />
        </mxCell>
        <mxCell id="jHMG6SsRFULOIU4X37C4-92" value="" style="rounded=0;whiteSpace=wrap;html=1;fillColor=#FFB366;" vertex="1" parent="1">
          <mxGeometry x="891" y="405" width="30" height="20" as="geometry" />
        </mxCell>
        <mxCell id="jHMG6SsRFULOIU4X37C4-93" value="))" style="text;html=1;strokeColor=none;fillColor=none;align=left;verticalAlign=middle;whiteSpace=wrap;rounded=0;" vertex="1" parent="1">
          <mxGeometry x="921" y="360" width="10" height="30" as="geometry" />
        </mxCell>
        <mxCell id="jHMG6SsRFULOIU4X37C4-94" value="" style="rounded=0;whiteSpace=wrap;html=1;" vertex="1" parent="1">
          <mxGeometry x="870" y="435" width="66" height="40" as="geometry" />
        </mxCell>
        <mxCell id="jHMG6SsRFULOIU4X37C4-95" value="" style="rounded=0;whiteSpace=wrap;html=1;fillColor=#FF8000;" vertex="1" parent="1">
          <mxGeometry x="891" y="445" width="30" height="20" as="geometry" />
        </mxCell>
        <mxCell id="jHMG6SsRFULOIU4X37C4-96" value="))" style="text;html=1;strokeColor=none;fillColor=none;align=left;verticalAlign=middle;whiteSpace=wrap;rounded=0;" vertex="1" parent="1">
          <mxGeometry x="921" y="440" width="10" height="30" as="geometry" />
        </mxCell>
        <mxCell id="jHMG6SsRFULOIU4X37C4-97" value="" style="rounded=0;whiteSpace=wrap;html=1;" vertex="1" parent="1">
          <mxGeometry x="870" y="475" width="66" height="40" as="geometry" />
        </mxCell>
        <mxCell id="jHMG6SsRFULOIU4X37C4-98" value="" style="rounded=0;whiteSpace=wrap;html=1;fillColor=#994C00;" vertex="1" parent="1">
          <mxGeometry x="891" y="485" width="30" height="20" as="geometry" />
        </mxCell>
        <mxCell id="jHMG6SsRFULOIU4X37C4-99" value="))" style="text;html=1;strokeColor=none;fillColor=none;align=left;verticalAlign=middle;whiteSpace=wrap;rounded=0;" vertex="1" parent="1">
          <mxGeometry x="921" y="480" width="10" height="30" as="geometry" />
        </mxCell>
        <mxCell id="jHMG6SsRFULOIU4X37C4-100" value="))" style="text;html=1;strokeColor=none;fillColor=none;align=left;verticalAlign=middle;whiteSpace=wrap;rounded=0;" vertex="1" parent="1">
          <mxGeometry x="921" y="400" width="10" height="30" as="geometry" />
        </mxCell>
        <mxCell id="jHMG6SsRFULOIU4X37C4-101" value="g(f(" style="text;html=1;strokeColor=none;fillColor=none;align=right;verticalAlign=middle;whiteSpace=wrap;rounded=0;" vertex="1" parent="1">
          <mxGeometry x="870" y="400" width="21" height="30" as="geometry" />
        </mxCell>
        <mxCell id="jHMG6SsRFULOIU4X37C4-102" value="g(f(" style="text;html=1;strokeColor=none;fillColor=none;align=right;verticalAlign=middle;whiteSpace=wrap;rounded=0;" vertex="1" parent="1">
          <mxGeometry x="880" y="440" width="11" height="30" as="geometry" />
        </mxCell>
        <mxCell id="jHMG6SsRFULOIU4X37C4-103" value="g(f(" style="text;html=1;strokeColor=none;fillColor=none;align=right;verticalAlign=middle;whiteSpace=wrap;rounded=0;" vertex="1" parent="1">
          <mxGeometry x="881" y="480" width="10" height="30" as="geometry" />
        </mxCell>
        <mxCell id="jHMG6SsRFULOIU4X37C4-133" value="" style="rounded=0;whiteSpace=wrap;html=1;fillColor=#99FFFF;" vertex="1" parent="1">
          <mxGeometry x="1028" y="395" width="30" height="20" as="geometry" />
        </mxCell>
        <mxCell id="jHMG6SsRFULOIU4X37C4-134" value="" style="rounded=0;whiteSpace=wrap;html=1;fillColor=#33FFFF;" vertex="1" parent="1">
          <mxGeometry x="1028" y="415" width="30" height="20" as="geometry" />
        </mxCell>
        <mxCell id="jHMG6SsRFULOIU4X37C4-135" value="" style="rounded=0;whiteSpace=wrap;html=1;fillColor=#00CCCC;" vertex="1" parent="1">
          <mxGeometry x="1028" y="435" width="30" height="20" as="geometry" />
        </mxCell>
        <mxCell id="jHMG6SsRFULOIU4X37C4-136" value="" style="rounded=0;whiteSpace=wrap;html=1;fillColor=#006666;" vertex="1" parent="1">
          <mxGeometry x="1028" y="455" width="30" height="20" as="geometry" />
        </mxCell>
        <mxCell id="jHMG6SsRFULOIU4X37C4-137" value="" style="shape=flexArrow;endArrow=classic;html=1;rounded=0;exitX=0;exitY=0.5;exitDx=0;exitDy=0;" edge="1" parent="1">
          <mxGeometry width="50" height="50" relative="1" as="geometry">
            <mxPoint x="960" y="434.38" as="sourcePoint" />
            <mxPoint x="1010" y="434.38" as="targetPoint" />
          </mxGeometry>
        </mxCell>
        <mxCell id="jHMG6SsRFULOIU4X37C4-138" value="&lt;font style=&quot;font-size: 24px;&quot;&gt;map(f, map(g(x))&lt;/font&gt;" style="text;html=1;strokeColor=none;fillColor=none;align=center;verticalAlign=middle;whiteSpace=wrap;rounded=0;" vertex="1" parent="1">
          <mxGeometry x="440" y="215" width="200" height="30" as="geometry" />
        </mxCell>
        <mxCell id="jHMG6SsRFULOIU4X37C4-139" value="&lt;font style=&quot;font-size: 24px;&quot;&gt;map(f(g(x))&lt;/font&gt;" style="text;html=1;strokeColor=none;fillColor=none;align=center;verticalAlign=middle;whiteSpace=wrap;rounded=0;" vertex="1" parent="1">
          <mxGeometry x="806" y="210" width="200" height="30" as="geometry" />
        </mxCell>
      </root>
    </mxGraphModel>
  </diagram>
</mxfile>
